<svg id="Capa_2" data-name="Capa 2" xmlns="http://www.w3.org/2000/svg" viewBox="0 0 238.81 210.74"><defs><style>.cls-1{fill:none;stroke-linecap:round;stroke-linejoin:round;stroke-width:3px;}.cls-1,.cls-2{stroke:#fff;}.cls-2{fill:#fff;stroke-miterlimit:10;}</style></defs><title>Mesa de trabajo 1a</title><path class="cls-1" d="M120,32.64c-14.27-26.31-38.68-26-57.07-12.36C49.88,30,8.4,64.08,8.4,64.08"/><path class="cls-1" d="M230.05,64.2s-40-34.24-53-43.91C158.67,6.66,134.26,6.34,120,32.66"/><path class="cls-1" d="M81.63,32.72s31.73,35.4,82,0"/><path class="cls-1" d="M8.4,64.08s25.25,1,48.77-20.18c0,0,11.31-11.63,19.87-1.31,8.3,10,28.78,4,28.78,4"/><path class="cls-1" d="M230.05,64.2s-21.83.87-45.35-20.3c0,0-11.31-11.63-19.87-1.31-8.3,10-28.78,4-28.78,4"/><path class="cls-1" d="M53.2,47.26s1.33,42.36-13.14,58.49c0,0,39.9-18.39,37.94-62.12"/><path class="cls-1" d="M189.33,48.45s-1,41.17,13.44,57.3c0,0-40-19-38-62.73"/><path class="cls-1" d="M81,45.93S72.73,65,84.23,65.74c10.13.65,5.37-17.2,5.37-17.2"/><path class="cls-1" d="M92.82,48.66s-6.14,16.39,5.32,17.67c11.64,1.29,6.58-19.17,6.58-19.17"/><path class="cls-1" d="M107.79,47.72s-5.65,17.33,5.81,18.61c11.64,1.29,7-17.3,7-17.3"/><path class="cls-1" d="M124,48.62s-6.15,16.43,5.3,17.71c11.65,1.29,7.15-19.17,7.15-19.17"/><path class="cls-1" d="M139,47.72s-5.64,17.33,5.81,18.61c11.65,1.29,7-17.3,7-17.3"/><path class="cls-1" d="M154.09,48.77s-5.48,20.22,5.64,17c9.86-2.87,2.87-21,2.87-21"/><circle class="cls-1" cx="119.71" cy="119.89" r="13.85"/><path class="cls-1" d="M109.54,110.49c6.27-6.94,9.52-28.95,9.52-28.95s4.33,20.14,10.5,28.61"/><path class="cls-1" d="M118.46,156.66c-1.79-14.12-9.6-28.18-9.6-28.18"/><path class="cls-1" d="M130.25,128.88S118.31,148,118.46,156.66"/><circle class="cls-2" cx="119.97" cy="119.8" r="5.87"/><path class="cls-1" d="M116.92,177.4c.49-3.92-1.12-16.33-9.25-31.92S98,124.56,98.61,117.29c1-12.11,10.28-16.17,11.25-31.71a67.55,67.55,0,0,1,2.55-15.32"/><path class="cls-1" d="M120.94,177.33c-.62-3.9,2.52-18.74,11.9-33.5,9.74-15.35,9.33-19.92,8.5-27.17C140,104.58,130.55,98.6,127.46,85.28s-2.63-13.7-2.63-13.7"/><line class="cls-1" x1="101.03" y1="79.02" x2="109.38" y2="85.58"/><line class="cls-1" x1="96.31" y1="92.12" x2="106.51" y2="95.98"/><line class="cls-1" x1="90.75" y1="106.53" x2="100.87" y2="108.16"/><line class="cls-1" x1="88.62" y1="122.06" x2="98.07" y2="121"/><line class="cls-1" x1="92.2" y1="136.3" x2="100.92" y2="132.51"/><line class="cls-1" x1="98.91" y1="149.62" x2="106.6" y2="144.03"/><line class="cls-1" x1="104.45" y1="160.84" x2="111.2" y2="153.76"/><line class="cls-1" x1="109.16" y1="171.76" x2="115" y2="165.37"/><line class="cls-1" x1="123.23" y1="165.59" x2="128.9" y2="172.13"/><line class="cls-1" x1="127.67" y1="153.74" x2="134.26" y2="160.78"/><line class="cls-1" x1="133.31" y1="144.31" x2="140.83" y2="149.38"/><line class="cls-1" x1="139.47" y1="132.49" x2="147.67" y2="135.99"/><line class="cls-1" x1="142.5" y1="120.77" x2="151.68" y2="121.51"/><line class="cls-1" x1="139.42" y1="108.05" x2="149.47" y2="106.08"/><line class="cls-1" x1="132.22" y1="96.27" x2="142.83" y2="92.51"/><line class="cls-1" x1="128.13" y1="86.06" x2="136.79" y2="78.43"/><path class="cls-1" d="M119.12,81.46s-1.51-19.91-29-12.68c-22.45,5.91-12.76,35.26-9.21,46.6,2.61,8.34,3.88,22.85,5.15,34.57S96.21,192.1,119.19,194"/><path class="cls-1" d="M119.19,81.54s1.51-19.91,29-12.68c22.44,5.91,12.75,35.27,9.21,46.6-2.62,8.34-3.88,22.85-5.15,34.57s-10.08,42.07-33.05,44"/><path class="cls-1" d="M66.29,83.3c5.51,5,9,9.63,10.1,14.12"/><path class="cls-1" d="M31.73,59.47A218.05,218.05,0,0,1,51.85,72.12"/><path class="cls-1" d="M174.38,81.1c-6.91,5.79-11.06,10.61-12.32,15.85"/><path class="cls-1" d="M207.22,58.71s-7.38,4-16.83,10.37"/><path class="cls-1" d="M48.35,100.79c10.48,19,24.06,32.11,36.07,34"/><path class="cls-1" d="M8.4,64.08s24.72,4.61,35.5,28c.76,1.64,1.11,2.39,1.92,4"/><path class="cls-1" d="M191.45,98.41c-10.62,20.26-24.93,34.52-37.42,36.49"/><path class="cls-1" d="M230.05,64.2S205.75,67.9,195,91.25"/></svg>